<svg version="1.1" id="Layer_1" xmlns="http://www.w3.org/2000/svg" xmlns:xlink="http://www.w3.org/1999/xlink" x="0px" y="0px"
	 width="100%" viewBox="0 0 1024 1024" enable-background="new 0 0 1024 1024" xml:space="preserve">
<path fill="#8F00FF" opacity="1.000000" stroke="none" 
	d="
M547.000000,1025.000000 
	C364.666656,1025.000000 182.833328,1025.000000 1.000000,1025.000000 
	C1.000000,683.666687 1.000000,342.333344 1.000000,1.000000 
	C342.333344,1.000000 683.666687,1.000000 1025.000000,1.000000 
	C1025.000000,342.333344 1025.000000,683.666687 1025.000000,1025.000000 
	C865.833313,1025.000000 706.666687,1025.000000 547.000000,1025.000000 
M271.147644,426.238403 
	C270.574615,426.403259 270.001587,426.568115 268.733643,426.612335 
	C267.843719,426.309937 266.953796,426.007538 265.838104,425.194489 
	C264.894531,425.106720 263.950928,425.018951 262.185272,424.875946 
	C260.839996,424.621338 259.494690,424.366730 257.901154,423.726471 
	C257.273621,423.761627 256.646118,423.796783 255.080276,423.872711 
	C233.225082,422.039307 215.665207,430.252319 200.826813,446.042969 
	C176.907303,471.497559 170.580933,525.635864 209.315201,551.363953 
	C210.537415,551.912048 211.759613,552.460144 213.561310,553.079407 
	C214.024536,553.418579 214.487762,553.757812 214.689926,554.666992 
	C214.469086,556.398010 214.248260,558.129028 213.328598,559.758789 
	C211.035645,558.757507 208.742706,557.756287 206.449753,556.755005 
	C243.170044,594.011963 309.105133,594.022644 345.296692,545.417053 
	C336.977142,538.635925 328.650360,531.848816 320.674591,525.347839 
	C315.233032,529.964050 309.209808,533.649536 305.135376,538.859192 
	C298.798492,546.961731 290.628082,552.156128 282.034607,556.388855 
	C282.002441,554.873169 281.970306,553.357544 282.337250,551.309509 
	C285.552460,548.883423 288.767670,546.457275 291.881805,544.107483 
	C285.305054,544.752869 278.906097,545.847473 272.495056,545.923462 
	C252.351013,546.161987 232.382019,532.576111 224.759903,513.884521 
	C216.474960,493.567566 220.680054,469.061096 235.022629,454.898895 
	C236.270721,453.666473 238.497559,453.443726 239.798447,452.241821 
	C241.497269,450.672302 242.408539,448.175598 244.212112,446.807404 
	C251.633804,441.177185 260.270020,438.270813 269.455841,438.120789 
	C277.222198,437.993927 285.009338,439.141327 292.553040,439.707214 
	C291.635529,438.674530 290.232819,437.095734 289.407501,434.953644 
	C290.074829,433.851196 290.742157,432.748779 291.747314,431.755280 
	C291.747314,431.755280 291.996124,432.008362 291.962555,432.654144 
	C291.995728,433.357513 292.028931,434.060883 292.062103,434.764252 
	C292.754852,434.324066 293.447601,433.883911 294.726471,433.841888 
	C303.974731,442.072479 313.223022,450.303101 322.655762,458.697845 
	C330.532135,451.419983 338.796509,443.783630 347.032532,436.173462 
	C316.935730,392.847809 248.792465,388.092010 210.000946,426.995270 
	C217.211945,424.300568 224.115936,421.720581 231.382401,419.510223 
	C231.928650,419.285950 232.474884,419.061646 233.755997,418.574982 
	C239.791489,418.205750 245.826981,417.836487 251.848419,418.137512 
	C253.894577,418.133362 255.940750,418.129211 258.714539,418.144287 
	C259.427887,418.277008 260.141266,418.409698 260.960266,419.018402 
	C261.639954,419.014191 262.319641,419.010010 263.726044,419.060211 
	C265.120178,419.461853 266.514343,419.863495 268.028320,421.029907 
	C269.203491,421.166534 270.378662,421.303131 272.183990,421.567688 
	C273.169464,421.968567 274.154968,422.369415 275.201691,423.481018 
	C272.431580,423.481018 269.661469,423.481018 266.877411,423.481018 
	C268.591339,424.325409 270.306427,425.170380 271.147644,426.238403 
M477.567383,527.500305 
	C477.567383,500.899536 477.567383,474.298798 477.567383,447.462463 
	C465.913696,447.462463 454.830505,447.462463 443.450134,447.462463 
	C443.450134,472.970856 443.401886,498.422211 443.467010,523.873291 
	C443.510864,541.018860 434.916901,550.260986 419.069702,549.876526 
	C400.142670,549.417236 392.096100,541.468994 391.889771,522.431946 
	C391.674988,502.612183 391.811432,482.788605 391.796265,462.966675 
	C391.792328,457.843414 391.795654,452.720123 391.795654,447.509827 
	C379.961914,447.509827 368.586151,447.509827 357.090576,447.509827 
	C357.090576,472.831696 356.988159,497.805115 357.168823,522.776489 
	C357.209564,528.404175 357.820343,534.105103 358.886536,539.633850 
	C362.437134,558.045410 372.462952,571.587585 390.716217,577.211182 
	C409.581848,583.023438 427.320526,581.053772 441.857422,565.914307 
	C442.782990,564.950378 443.868256,564.139771 445.742950,562.504333 
	C445.742950,568.375366 445.742950,572.987488 445.742950,577.554688 
	C456.460419,577.554688 466.727844,577.554688 477.569489,577.554688 
	C477.569489,561.051147 477.569489,544.775757 477.567383,527.500305 
M674.500488,549.729187 
	C661.499573,549.729187 648.498657,549.729187 634.259399,549.729187 
	C642.217041,538.624390 649.258301,528.719238 656.382812,518.874268 
	C667.901184,502.957733 679.479675,487.084717 691.010803,471.177399 
	C691.669067,470.269257 692.588196,469.226776 692.608154,468.231232 
	C692.747620,461.280670 692.681885,454.326019 692.681885,447.267151 
	C659.457153,447.267151 626.860535,447.267151 594.085083,447.267151 
	C594.085083,456.374542 594.085083,465.276337 594.085083,474.935089 
	C612.293579,474.935089 630.279419,474.935089 649.090393,474.935089 
	C632.617676,497.237183 616.799011,518.636963 601.002808,540.053284 
	C597.651062,544.597534 592.582153,548.815308 591.495483,553.869507 
	C589.870483,561.428101 591.073364,569.594727 591.073364,577.520386 
	C626.232361,577.520386 660.655945,577.520386 695.359741,577.520386 
	C695.359741,568.193787 695.359741,559.123291 695.359741,549.725952 
	C688.795715,549.725952 682.148071,549.725952 674.500488,549.729187 
M771.543335,466.226532 
	C781.847656,465.853363 791.328003,468.250793 799.769287,474.977661 
	C805.165283,468.916016 810.421448,463.011505 815.672607,457.112610 
	C790.863220,434.516815 748.965210,437.192291 723.907715,462.719360 
	C711.844849,475.008301 705.349365,489.807770 704.979004,507.078369 
	C704.344788,536.653748 720.082581,556.383789 744.560852,569.812378 
	C751.188354,573.448181 759.736450,574.273071 767.528687,574.957336 
	C785.904541,576.571289 802.547424,571.440735 816.614502,559.302490 
	C844.056091,535.623535 847.482178,496.272186 828.524231,471.371552 
	C825.767883,474.516693 823.283691,477.869080 820.282043,480.666107 
	C814.444275,486.105988 813.088379,491.812225 814.998901,499.972748 
	C819.035828,517.215881 810.620361,534.787048 795.640686,544.207520 
	C787.379395,549.403015 778.142151,551.483948 768.843140,549.967102 
	C761.435669,548.758667 753.556641,546.408508 747.409607,542.291687 
	C731.505737,531.640564 725.996582,513.514038 731.534912,495.190430 
	C736.629822,478.333893 751.666077,467.178650 771.543335,466.226532 
M546.195251,446.181702 
	C546.195251,433.559631 546.195251,420.937561 546.195251,407.816620 
	C534.839905,412.301025 523.983337,416.487244 513.251099,420.970917 
	C512.074341,421.462555 510.971375,423.642456 510.925385,425.074341 
	C510.691620,432.348846 510.817627,439.634918 510.817627,447.506531 
	C504.211639,447.506531 498.008118,447.506531 491.886108,447.506531 
	C491.886108,456.885620 491.886108,465.666229 491.886108,474.843201 
	C498.262421,474.843201 504.358246,474.843201 510.794281,474.843201 
	C510.794281,490.536713 510.689178,505.831390 510.834717,521.123657 
	C510.918671,529.942993 510.923279,538.808960 511.834320,547.563293 
	C513.025574,559.010132 517.823242,569.017822 528.338257,574.626282 
	C543.665710,582.801514 559.736267,581.309448 575.723816,577.024597 
	C575.723816,566.793457 575.723816,557.085388 575.723816,548.204651 
	C569.929993,548.764099 564.346558,549.907166 558.815369,549.694214 
	C550.752563,549.383850 547.053101,545.453003 546.450806,537.452454 
	C546.038940,531.980591 546.135254,526.465576 546.121948,520.969543 
	C546.084839,505.664856 546.109070,490.359985 546.109070,474.526428 
	C556.316284,474.526428 566.060486,474.526428 575.645142,474.526428 
	C575.645142,465.076874 575.645142,456.163055 575.645142,446.877869 
	C565.806458,446.877869 556.325562,446.877869 546.195251,446.181702 
M745.178894,505.456543 
	C754.396179,514.991699 763.613403,524.526855 772.667908,533.893555 
	C789.912170,511.424133 807.291992,488.778137 824.414307,466.467682 
	C823.259827,465.086182 821.604004,463.104797 819.796692,460.942139 
	C803.484314,478.196136 787.428162,495.179108 771.267761,512.272339 
	C764.453064,506.141449 757.942993,500.284546 751.312256,494.319122 
	C748.938538,496.940979 746.610779,499.306519 744.582336,501.905640 
	C744.109375,502.511749 744.653320,503.911438 745.178894,505.456543 
M354.981018,478.500000 
	C354.981018,468.349030 354.981018,458.198059 354.981018,448.047058 
	C354.750671,448.051300 354.520294,448.055542 354.289948,448.059784 
	C354.289948,474.482330 354.289948,500.904877 354.289948,527.327393 
	C354.520294,527.327759 354.750641,527.328064 354.980988,527.328369 
	C354.980988,511.385590 354.980988,495.442780 354.981018,478.500000 
M439.991364,461.507996 
	C439.991364,482.977386 439.991364,504.446777 439.991364,525.916199 
	C440.224030,525.914612 440.456665,525.913025 440.689331,525.911438 
	C440.689331,499.815125 440.689331,473.718781 440.689331,447.622467 
	C440.456665,447.619141 440.224030,447.615814 439.991364,447.612488 
	C439.991364,451.912567 439.991364,456.212677 439.991364,461.507996 
M508.974030,479.414093 
	C508.854401,478.945923 508.734772,478.477753 508.282166,476.706726 
	C508.282166,499.354340 508.282166,520.679321 508.282166,542.004272 
	C508.514954,542.004761 508.747772,542.005310 508.980560,542.005798 
	C508.980560,521.413818 508.980560,500.821808 508.974030,479.414093 
M594.882202,579.941101 
	C593.757935,580.053833 592.633606,580.166504 591.509338,580.279236 
	C591.517395,580.418579 591.525452,580.557983 591.533508,580.697327 
	C604.373413,580.697327 617.213318,580.697327 630.053223,580.697327 
	C630.053589,580.444763 630.053955,580.192261 630.054321,579.939697 
	C618.636658,579.939697 607.219055,579.939697 594.882202,579.941101 
M469.414185,443.826141 
	C460.844360,443.826141 452.274536,443.826141 443.704712,443.826141 
	C443.714355,444.126984 443.724030,444.427856 443.733673,444.728699 
	C454.912659,444.728699 466.091644,444.728699 477.270660,444.728699 
	C477.269165,444.427765 477.267670,444.126862 477.266205,443.825928 
	C474.971313,443.825928 472.676422,443.825928 469.414185,443.826141 
M662.228760,581.049133 
	C671.530701,581.049133 680.832642,581.049133 690.134644,581.049133 
	C680.668640,580.005249 671.214111,580.001709 661.759827,580.045471 
	C661.642639,580.046021 661.528198,580.652222 662.228760,581.049133 
M364.759033,445.060364 
	C372.871063,445.060364 380.983124,445.060364 389.095154,445.060364 
	C389.086853,444.809570 389.078552,444.558777 389.070251,444.307983 
	C379.358856,444.307983 369.647461,444.307983 359.936066,444.307983 
	C359.937561,444.558807 359.939056,444.809631 359.940552,445.060455 
	C361.241211,445.060455 362.541870,445.060455 364.759033,445.060364 
M457.532104,581.060425 
	C463.115112,581.060425 468.698120,581.060425 474.281097,581.060425 
	C474.277588,580.771545 474.274078,580.482727 474.270538,580.193848 
	C465.091492,580.193848 455.912445,580.193848 446.733398,580.193848 
	C446.727753,580.482727 446.722107,580.771606 446.716461,581.060486 
	C449.993927,581.060486 453.271423,581.060486 457.532104,581.060425 
M591.951843,450.055481 
	C591.869873,449.247742 591.787964,448.440002 591.705994,447.632263 
	C591.566711,447.639038 591.427429,447.645782 591.288147,447.652527 
	C591.288147,456.372803 591.288147,465.093109 591.288147,473.813385 
	C591.511780,473.813660 591.735413,473.813904 591.959045,473.814178 
	C591.959045,466.189972 591.959045,458.565735 591.951843,450.055481 
M697.994934,563.495728 
	C697.994934,567.792053 697.994934,572.088379 697.994934,576.384705 
	C698.224243,576.374207 698.453613,576.363708 698.682922,576.353149 
	C698.682922,567.448425 698.682922,558.543701 698.682922,549.638977 
	C698.453613,549.637817 698.224243,549.636719 697.994934,549.635620 
	C697.994934,553.925354 697.994934,558.215088 697.994934,563.495728 
M587.941101,557.003174 
	C587.941101,563.674805 587.941101,570.346375 587.941101,577.018005 
	C588.174255,577.012695 588.407349,577.007385 588.640503,577.002075 
	C588.640503,569.405640 588.640503,561.809204 588.640503,554.212769 
	C588.453613,554.212341 588.266663,554.211975 588.079773,554.211548 
	C588.033508,554.856628 587.987244,555.501770 587.941101,557.003174 
M211.451477,556.434265 
	C211.863007,556.452087 212.282990,556.517151 212.678757,556.446594 
	C212.755325,556.432861 212.737274,555.888916 212.762863,555.589600 
	C212.383621,555.689819 212.004379,555.790100 211.451477,556.434265 
M289.477722,548.660889 
	C289.477722,548.660889 289.597748,548.432739 289.597748,548.432739 
	C289.597748,548.432739 289.342560,548.473755 289.477722,548.660889 
z"/>
<path fill="#FAFAFA" opacity="1.000000" stroke="none" 
	d="
M477.568420,528.000366 
	C477.569489,544.775757 477.569489,561.051147 477.569489,577.554688 
	C466.727844,577.554688 456.460419,577.554688 445.742950,577.554688 
	C445.742950,572.987488 445.742950,568.375366 445.742950,562.504333 
	C443.868256,564.139771 442.782990,564.950378 441.857422,565.914307 
	C427.320526,581.053772 409.581848,583.023438 390.716217,577.211182 
	C372.462952,571.587585 362.437134,558.045410 358.886536,539.633850 
	C357.820343,534.105103 357.209564,528.404175 357.168823,522.776489 
	C356.988159,497.805115 357.090576,472.831696 357.090576,447.509827 
	C368.586151,447.509827 379.961914,447.509827 391.795654,447.509827 
	C391.795654,452.720123 391.792328,457.843414 391.796265,462.966675 
	C391.811432,482.788605 391.674988,502.612183 391.889771,522.431946 
	C392.096100,541.468994 400.142670,549.417236 419.069702,549.876526 
	C434.916901,550.260986 443.510864,541.018860 443.467010,523.873291 
	C443.401886,498.422211 443.450134,472.970856 443.450134,447.462463 
	C454.830505,447.462463 465.913696,447.462463 477.567383,447.462463 
	C477.567383,474.298798 477.567383,500.899536 477.568420,528.000366 
z"/>
<path fill="#FAFAFA" opacity="1.000000" stroke="none" 
	d="
M675.000488,549.727539 
	C682.148071,549.725952 688.795715,549.725952 695.359741,549.725952 
	C695.359741,559.123291 695.359741,568.193787 695.359741,577.520386 
	C660.655945,577.520386 626.232361,577.520386 591.073364,577.520386 
	C591.073364,569.594727 589.870483,561.428101 591.495483,553.869507 
	C592.582153,548.815308 597.651062,544.597534 601.002808,540.053284 
	C616.799011,518.636963 632.617676,497.237183 649.090393,474.935089 
	C630.279419,474.935089 612.293579,474.935089 594.085083,474.935089 
	C594.085083,465.276337 594.085083,456.374542 594.085083,447.267151 
	C626.860535,447.267151 659.457153,447.267151 692.681885,447.267151 
	C692.681885,454.326019 692.747620,461.280670 692.608154,468.231232 
	C692.588196,469.226776 691.669067,470.269257 691.010803,471.177399 
	C679.479675,487.084717 667.901184,502.957733 656.382812,518.874268 
	C649.258301,528.719238 642.217041,538.624390 634.259399,549.729187 
	C648.498657,549.729187 661.499573,549.729187 675.000488,549.727539 
z"/>
<path fill="#FBFBFB" opacity="1.000000" stroke="none" 
	d="
M771.058838,466.226929 
	C751.666077,467.178650 736.629822,478.333893 731.534912,495.190430 
	C725.996582,513.514038 731.505737,531.640564 747.409607,542.291687 
	C753.556641,546.408508 761.435669,548.758667 768.843140,549.967102 
	C778.142151,551.483948 787.379395,549.403015 795.640686,544.207520 
	C810.620361,534.787048 819.035828,517.215881 814.998901,499.972748 
	C813.088379,491.812225 814.444275,486.105988 820.282043,480.666107 
	C823.283691,477.869080 825.767883,474.516693 828.524231,471.371552 
	C847.482178,496.272186 844.056091,535.623535 816.614502,559.302490 
	C802.547424,571.440735 785.904541,576.571289 767.528687,574.957336 
	C759.736450,574.273071 751.188354,573.448181 744.560852,569.812378 
	C720.082581,556.383789 704.344788,536.653748 704.979004,507.078369 
	C705.349365,489.807770 711.844849,475.008301 723.907715,462.719360 
	C748.965210,437.192291 790.863220,434.516815 815.672607,457.112610 
	C810.421448,463.011505 805.165283,468.916016 799.769287,474.977661 
	C791.328003,468.250793 781.847656,465.853363 771.058838,466.226929 
z"/>
<path fill="#FCFCFC" opacity="1.000000" stroke="none" 
	d="
M546.519958,446.529785 
	C556.325562,446.877869 565.806458,446.877869 575.645142,446.877869 
	C575.645142,456.163055 575.645142,465.076874 575.645142,474.526428 
	C566.060486,474.526428 556.316284,474.526428 546.109070,474.526428 
	C546.109070,490.359985 546.084839,505.664856 546.121948,520.969543 
	C546.135254,526.465576 546.038940,531.980591 546.450806,537.452454 
	C547.053101,545.453003 550.752563,549.383850 558.815369,549.694214 
	C564.346558,549.907166 569.929993,548.764099 575.723816,548.204651 
	C575.723816,557.085388 575.723816,566.793457 575.723816,577.024597 
	C559.736267,581.309448 543.665710,582.801514 528.338257,574.626282 
	C517.823242,569.017822 513.025574,559.010132 511.834320,547.563293 
	C510.923279,538.808960 510.918671,529.942993 510.834717,521.123657 
	C510.689178,505.831390 510.794281,490.536713 510.794281,474.843201 
	C504.358246,474.843201 498.262421,474.843201 491.886108,474.843201 
	C491.886108,465.666229 491.886108,456.885620 491.886108,447.506531 
	C498.008118,447.506531 504.211639,447.506531 510.817627,447.506531 
	C510.817627,439.634918 510.691620,432.348846 510.925385,425.074341 
	C510.971375,423.642456 512.074341,421.462555 513.251099,420.970917 
	C523.983337,416.487244 534.839905,412.301025 546.195251,407.816620 
	C546.195251,420.937561 546.195251,433.559631 546.519958,446.529785 
z"/>
<path fill="#FBFBFB" opacity="1.000000" stroke="none" 
	d="
M258.149414,424.112091 
	C259.494690,424.366730 260.839996,424.621338 262.842896,425.121887 
	C264.354950,425.480286 265.209412,425.592712 266.063873,425.705139 
	C266.953796,426.007538 267.843719,426.309937 269.292236,426.885193 
	C270.605682,427.299622 271.360565,427.441193 272.453552,427.752014 
	C273.503571,428.168213 274.215546,428.415161 275.011047,428.845215 
	C275.094574,429.028320 275.469055,429.175415 275.469055,429.175415 
	C275.469055,429.175415 275.844604,429.031158 276.134094,429.244995 
	C278.926544,430.416199 281.429535,431.373566 283.956207,432.235260 
	C283.979858,432.139587 283.783630,432.120972 283.708313,432.563232 
	C284.393585,433.108215 285.154205,433.210876 285.928558,433.221954 
	C285.942322,433.130371 285.757446,433.141937 285.673950,433.536560 
	C286.045288,434.022980 286.500122,434.114777 286.948547,434.136230 
	C286.942169,434.065887 286.806244,434.104340 286.768188,434.531891 
	C287.461792,435.075592 288.193451,435.191742 288.868713,435.345337 
	C288.812317,435.382751 288.830139,435.516937 288.830139,435.516937 
	C290.232819,437.095734 291.635529,438.674530 292.553040,439.707214 
	C285.009338,439.141327 277.222198,437.993927 269.455841,438.120789 
	C260.270020,438.270813 251.633804,441.177185 244.212112,446.807404 
	C242.408539,448.175598 241.497269,450.672302 239.798447,452.241821 
	C238.497559,453.443726 236.270721,453.666473 235.022629,454.898895 
	C220.680054,469.061096 216.474960,493.567566 224.759903,513.884521 
	C232.382019,532.576111 252.351013,546.161987 272.495056,545.923462 
	C278.906097,545.847473 285.305054,544.752869 291.881805,544.107483 
	C288.767670,546.457275 285.552460,548.883423 281.778564,551.626770 
	C274.317535,554.667114 267.619141,558.261292 260.471100,559.935181 
	C244.742889,563.618408 229.525940,560.739563 214.950989,554.096985 
	C214.487762,553.757812 214.024536,553.418579 213.140472,552.740356 
	C211.538559,551.814392 210.357452,551.227478 209.176361,550.640564 
	C170.580933,525.635864 176.907303,471.497559 200.826813,446.042969 
	C215.665207,430.252319 233.225082,422.039307 255.770355,424.036987 
	C257.023438,424.171539 257.586426,424.141815 258.149414,424.112091 
z"/>
<path fill="#FAFAFA" opacity="1.000000" stroke="none" 
	d="
M260.854614,418.542419 
	C260.141266,418.409698 259.427887,418.277008 258.026123,417.923309 
	C255.512650,417.623962 253.687561,417.545593 251.862473,417.467224 
	C245.826981,417.836487 239.791489,418.205750 233.205078,418.574951 
	C232.109421,418.763489 231.564682,418.952026 231.019928,419.140594 
	C224.115936,421.720581 217.211945,424.300568 210.000946,426.995270 
	C248.792465,388.092010 316.935730,392.847809 347.032532,436.173462 
	C338.796509,443.783630 330.532135,451.419983 322.655762,458.697845 
	C313.223022,450.303101 303.974731,442.072479 294.308624,433.398315 
	C293.259216,432.639282 292.627686,432.323822 291.996124,432.008362 
	C291.996124,432.008362 291.747314,431.755280 291.408997,431.410645 
	C289.079437,429.998566 287.088196,428.931122 284.851135,427.620911 
	C282.436188,426.336792 280.267090,425.295380 277.985260,423.980804 
	C276.961853,423.395203 276.051147,423.082733 275.140442,422.770264 
	C274.154968,422.369415 273.169464,421.968567 271.626099,421.272766 
	C270.014984,420.740295 268.961731,420.502716 267.908478,420.265137 
	C266.514343,419.863495 265.120178,419.461853 263.146912,418.826263 
	C261.996704,418.575684 261.425659,418.559052 260.854614,418.542419 
z"/>
<path fill="#FAFAFA" opacity="1.000000" stroke="none" 
	d="
M282.012115,557.056274 
	C290.628082,552.156128 298.798492,546.961731 305.135376,538.859192 
	C309.209808,533.649536 315.233032,529.964050 320.674591,525.347839 
	C328.650360,531.848816 336.977142,538.635925 345.296692,545.417053 
	C309.105133,594.022644 243.170044,594.011963 206.449753,556.755005 
	C208.742706,557.756287 211.035645,558.757507 213.909943,560.077209 
	C217.439178,561.535950 220.323990,562.889954 223.345169,563.782104 
	C243.833847,569.832642 263.434723,567.830139 282.012115,557.056274 
z"/>
<path fill="#F7F7F7" opacity="1.000000" stroke="none" 
	d="
M744.954102,505.201294 
	C744.653320,503.911438 744.109375,502.511749 744.582336,501.905640 
	C746.610779,499.306519 748.938538,496.940979 751.312256,494.319122 
	C757.942993,500.284546 764.453064,506.141449 771.267761,512.272339 
	C787.428162,495.179108 803.484314,478.196136 819.796692,460.942139 
	C821.604004,463.104797 823.259827,465.086182 824.414307,466.467682 
	C807.291992,488.778137 789.912170,511.424133 772.667908,533.893555 
	C763.613403,524.526855 754.396179,514.991699 744.954102,505.201294 
z"/>
<path fill="#212120" opacity="1.000000" stroke="none" 
	d="
M282.023376,556.722534 
	C263.434723,567.830139 243.833847,569.832642 223.345169,563.782104 
	C220.323990,562.889954 217.439178,561.535950 214.259354,560.127808 
	C214.248260,558.129028 214.469086,556.398010 214.820465,554.381958 
	C229.525940,560.739563 244.742889,563.618408 260.471100,559.935181 
	C267.619141,558.261292 274.317535,554.667114 281.579041,551.892944 
	C281.970306,553.357544 282.002441,554.873169 282.023376,556.722534 
z"/>
<path fill="#444444" opacity="1.000000" stroke="none" 
	d="
M354.981018,479.000000 
	C354.980988,495.442780 354.980988,511.385590 354.980988,527.328369 
	C354.750641,527.328064 354.520294,527.327759 354.289948,527.327393 
	C354.289948,500.904877 354.289948,474.482330 354.289948,448.059784 
	C354.520294,448.055542 354.750671,448.051300 354.981018,448.047058 
	C354.981018,458.198059 354.981018,468.349030 354.981018,479.000000 
z"/>
<path fill="#FAFAFA" opacity="1.000000" stroke="none" 
	d="
M439.991364,461.010376 
	C439.991364,456.212677 439.991364,451.912567 439.991364,447.612488 
	C440.224030,447.615814 440.456665,447.619141 440.689331,447.622467 
	C440.689331,473.718781 440.689331,499.815125 440.689331,525.911438 
	C440.456665,525.913025 440.224030,525.914612 439.991364,525.916199 
	C439.991364,504.446777 439.991364,482.977386 439.991364,461.010376 
z"/>
<path fill="#444444" opacity="1.000000" stroke="none" 
	d="
M508.977295,479.821960 
	C508.980560,500.821808 508.980560,521.413818 508.980560,542.005798 
	C508.747772,542.005310 508.514954,542.004761 508.282166,542.004272 
	C508.282166,520.679321 508.282166,499.354340 508.282166,476.706726 
	C508.734772,478.477753 508.854401,478.945923 508.977295,479.821960 
z"/>
<path fill="#444444" opacity="1.000000" stroke="none" 
	d="
M595.341797,579.940430 
	C607.219055,579.939697 618.636658,579.939697 630.054321,579.939697 
	C630.053955,580.192261 630.053589,580.444763 630.053223,580.697327 
	C617.213318,580.697327 604.373413,580.697327 591.533508,580.697327 
	C591.525452,580.557983 591.517395,580.418579 591.509338,580.279236 
	C592.633606,580.166504 593.757935,580.053833 595.341797,579.940430 
z"/>
<path fill="#444444" opacity="1.000000" stroke="none" 
	d="
M469.897858,443.826050 
	C472.676422,443.825928 474.971313,443.825928 477.266205,443.825928 
	C477.267670,444.126862 477.269165,444.427765 477.270660,444.728699 
	C466.091644,444.728699 454.912659,444.728699 443.733673,444.728699 
	C443.724030,444.427856 443.714355,444.126984 443.704712,443.826141 
	C452.274536,443.826141 460.844360,443.826141 469.897858,443.826050 
z"/>
<path fill="#444444" opacity="1.000000" stroke="none" 
	d="
M275.171082,423.125641 
	C276.051147,423.082733 276.961853,423.395203 277.990662,424.375336 
	C280.174652,427.973724 277.370178,428.139404 275.844604,429.031158 
	C275.844604,429.031158 275.469055,429.175415 275.469055,429.175415 
	C275.469055,429.175415 275.094574,429.028320 275.053650,428.434387 
	C274.002594,427.219849 272.992462,426.599243 271.991302,425.988678 
	C272.000305,425.998718 272.021515,426.015350 272.021515,426.015350 
	C270.306427,425.170380 268.591339,424.325409 266.877411,423.481018 
	C269.661469,423.481018 272.431580,423.481018 275.171082,423.125641 
z"/>
<path fill="#444444" opacity="1.000000" stroke="none" 
	d="
M661.820679,581.012451 
	C661.528198,580.652222 661.642639,580.046021 661.759827,580.045471 
	C671.214111,580.001709 680.668640,580.005249 690.134644,581.049133 
	C680.832642,581.049133 671.530701,581.049133 661.820679,581.012451 
z"/>
<path fill="#444444" opacity="1.000000" stroke="none" 
	d="
M285.096924,427.863678 
	C287.088196,428.931122 289.079437,429.998566 291.240051,431.356201 
	C290.742157,432.748779 290.074829,433.851196 289.118835,435.235291 
	C288.830139,435.516937 288.812317,435.382751 288.751648,435.026733 
	C288.062744,434.481934 287.434509,434.293152 286.806244,434.104340 
	C286.806244,434.104340 286.942169,434.065887 286.829956,433.870239 
	C286.397614,433.497040 286.077545,433.319489 285.757446,433.141937 
	C285.757446,433.141937 285.942322,433.130371 285.828156,432.891510 
	C285.070526,432.475433 284.427094,432.298187 283.783630,432.120972 
	C283.783630,432.120972 283.979858,432.139587 283.851562,431.884277 
	C284.181183,430.373871 284.639069,429.118774 285.096924,427.863678 
z"/>
<path fill="#444444" opacity="1.000000" stroke="none" 
	d="
M364.300781,445.060425 
	C362.541870,445.060455 361.241211,445.060455 359.940552,445.060455 
	C359.939056,444.809631 359.937561,444.558807 359.936066,444.307983 
	C369.647461,444.307983 379.358856,444.307983 389.070251,444.307983 
	C389.078552,444.558777 389.086853,444.809570 389.095154,445.060364 
	C380.983124,445.060364 372.871063,445.060364 364.300781,445.060425 
z"/>
<path fill="#444444" opacity="1.000000" stroke="none" 
	d="
M457.040497,581.060425 
	C453.271423,581.060486 449.993927,581.060486 446.716461,581.060486 
	C446.722107,580.771606 446.727753,580.482727 446.733398,580.193848 
	C455.912445,580.193848 465.091492,580.193848 474.270538,580.193848 
	C474.274078,580.482727 474.277588,580.771545 474.281097,581.060425 
	C468.698120,581.060425 463.115112,581.060425 457.040497,581.060425 
z"/>
<path fill="#444444" opacity="1.000000" stroke="none" 
	d="
M591.955444,450.498505 
	C591.959045,458.565735 591.959045,466.189972 591.959045,473.814178 
	C591.735413,473.813904 591.511780,473.813660 591.288147,473.813385 
	C591.288147,465.093109 591.288147,456.372803 591.288147,447.652527 
	C591.427429,447.645782 591.566711,447.639038 591.705994,447.632263 
	C591.787964,448.440002 591.869873,449.247742 591.955444,450.498505 
z"/>
<path fill="#FCFCFC" opacity="1.000000" stroke="none" 
	d="
M697.994934,563.000244 
	C697.994934,558.215088 697.994934,553.925354 697.994934,549.635620 
	C698.224243,549.636719 698.453613,549.637817 698.682922,549.638977 
	C698.682922,558.543701 698.682922,567.448425 698.682922,576.353149 
	C698.453613,576.363708 698.224243,576.374207 697.994934,576.384705 
	C697.994934,572.088379 697.994934,567.792053 697.994934,563.000244 
z"/>
<path fill="#444444" opacity="1.000000" stroke="none" 
	d="
M587.941040,556.575012 
	C587.987244,555.501770 588.033508,554.856628 588.079773,554.211548 
	C588.266663,554.211975 588.453613,554.212341 588.640503,554.212769 
	C588.640503,561.809204 588.640503,569.405640 588.640503,577.002075 
	C588.407349,577.007385 588.174255,577.012695 587.941101,577.018005 
	C587.941101,570.346375 587.941101,563.674805 587.941040,556.575012 
z"/>
<path fill="#444444" opacity="1.000000" stroke="none" 
	d="
M251.855438,417.802368 
	C253.687561,417.545593 255.512650,417.623962 257.662323,417.913696 
	C255.940750,418.129211 253.894577,418.133362 251.855438,417.802368 
z"/>
<path fill="#444444" opacity="1.000000" stroke="none" 
	d="
M291.979340,432.331238 
	C292.627686,432.323822 293.259216,432.639282 294.015564,433.199219 
	C293.447601,433.883911 292.754852,434.324066 292.062103,434.764252 
	C292.028931,434.060883 291.995728,433.357513 291.979340,432.331238 
z"/>
<path fill="#444444" opacity="1.000000" stroke="none" 
	d="
M267.968384,420.647522 
	C268.961731,420.502716 270.014984,420.740295 271.311035,421.208801 
	C270.378662,421.303131 269.203491,421.166534 267.968384,420.647522 
z"/>
<path fill="#212120" opacity="1.000000" stroke="none" 
	d="
M209.245789,551.002258 
	C210.357452,551.227478 211.538559,551.814392 212.850739,552.704773 
	C211.759613,552.460144 210.537415,551.912048 209.245789,551.002258 
z"/>
<path fill="#444444" opacity="1.000000" stroke="none" 
	d="
M265.950989,425.449829 
	C265.209412,425.592712 264.354950,425.480286 263.253906,425.149536 
	C263.950928,425.018951 264.894531,425.106720 265.950989,425.449829 
z"/>
<path fill="#444444" opacity="1.000000" stroke="none" 
	d="
M260.907440,418.780396 
	C261.425659,418.559052 261.996704,418.575684 262.783539,418.799072 
	C262.319641,419.010010 261.639954,419.014191 260.907440,418.780396 
z"/>
<path fill="#444444" opacity="1.000000" stroke="none" 
	d="
M258.025269,423.919281 
	C257.586426,424.141815 257.023438,424.171539 256.239502,424.016602 
	C256.646118,423.796783 257.273621,423.761627 258.025269,423.919281 
z"/>
<path fill="#444444" opacity="1.000000" stroke="none" 
	d="
M272.115448,427.582764 
	C271.360565,427.441193 270.605682,427.299622 269.639709,426.945526 
	C270.001587,426.568115 270.574615,426.403259 271.584595,426.126892 
	C272.021515,426.015350 272.000305,425.998718 271.949829,426.260925 
	C271.971375,426.876373 272.043396,427.229553 272.115448,427.582764 
z"/>
<path fill="#444444" opacity="1.000000" stroke="none" 
	d="
M231.201172,419.325409 
	C231.564682,418.952026 232.109421,418.763489 232.837646,418.706146 
	C232.474884,419.061646 231.928650,419.285950 231.201172,419.325409 
z"/>
<path fill="#212120" opacity="1.000000" stroke="none" 
	d="
M211.538300,556.162354 
	C212.004379,555.790100 212.383621,555.689819 212.762863,555.589600 
	C212.737274,555.888916 212.755325,556.432861 212.678757,556.446594 
	C212.282990,556.517151 211.863007,556.452087 211.538300,556.162354 
z"/>
<path fill="#212120" opacity="1.000000" stroke="none" 
	d="
M289.410156,548.567322 
	C289.342560,548.473755 289.597748,548.432739 289.597748,548.432739 
	C289.597748,548.432739 289.477722,548.660889 289.410156,548.567322 
z"/>
<path fill="#8F00FF" opacity="1.000000" stroke="none" 
	d="
M284.851135,427.620911 
	C284.639069,429.118774 284.181183,430.373871 283.827942,431.979980 
	C281.429535,431.373566 278.926544,430.416199 276.134094,429.244995 
	C277.370178,428.139404 280.174652,427.973724 278.103394,424.648499 
	C280.267090,425.295380 282.436188,426.336792 284.851135,427.620911 
z"/>
<path fill="#8F00FF" opacity="1.000000" stroke="none" 
	d="
M272.453552,427.752014 
	C272.043396,427.229553 271.971375,426.876373 271.940826,426.250916 
	C272.992462,426.599243 274.002594,427.219849 274.970093,428.251282 
	C274.215546,428.415161 273.503571,428.168213 272.453552,427.752014 
z"/>
<path fill="#8F00FF" opacity="1.000000" stroke="none" 
	d="
M283.708313,432.563232 
	C284.427094,432.298187 285.070526,432.475433 285.814392,432.983093 
	C285.154205,433.210876 284.393585,433.108215 283.708313,432.563232 
z"/>
<path fill="#8F00FF" opacity="1.000000" stroke="none" 
	d="
M286.768188,434.531891 
	C287.434509,434.293152 288.062744,434.481934 288.808044,434.989319 
	C288.193451,435.191742 287.461792,435.075592 286.768188,434.531891 
z"/>
<path fill="#8F00FF" opacity="1.000000" stroke="none" 
	d="
M285.673950,433.536560 
	C286.077545,433.319489 286.397614,433.497040 286.836334,433.940552 
	C286.500122,434.114777 286.045288,434.022980 285.673950,433.536560 
z"/>
</svg>